<?xml version="1.0" standalone="no"?>
<!DOCTYPE svg PUBLIC "-//W3C//DTD SVG 1.1//EN" "http://www.w3.org/Graphics/SVG/1.1/DTD/svg11.dtd" >
<svg>
<metadata>
Created by FontForge 20090914 at Sat Dec  6 21:34:51 2014
 By www-data
Copyright &#194;&#169; Kemie Guaida, 2008. All rights reserved.
</metadata>
<defs>
<font id="ladybugpx-Regular" horiz-adv-x="875" >
  <font-face 
    font-family="ladybug px"
    font-weight="400"
    font-stretch="normal"
    units-per-em="1000"
    panose-1="0 0 0 0 0 0 0 0 0 0"
    ascent="800"
    descent="-200"
    x-height="625"
    cap-height="625"
    bbox="250 -375 1125 1000"
    underline-thickness="2"
    underline-position="11"
    unicode-range="U+0020-U+00FF"
  />
<missing-glyph horiz-adv-x="1125" 
d="M250 -125v125h125v-125h-125v0v0z" />
    <glyph glyph-name=".notdef" horiz-adv-x="1125" 
d="M250 -125v125h125v-125h-125v0v0z" />
    <glyph glyph-name="space" unicode=" " horiz-adv-x="375" 
 />
    <glyph glyph-name="exclam" unicode="!" horiz-adv-x="375" 
d="M250 250v125v125v125h125v-125v-125v-125h-125v0v0zM250 0v125h125v-125h-125v0v0z" />
    <glyph glyph-name="quotedbl" unicode="&#x22;" horiz-adv-x="625" 
d="M250 500v125h125v-125h-125v0v0zM500 500v125h125v-125h-125v0v0z" />
    <glyph glyph-name="numbersign" unicode="#" 
d="M250 125v125h125v125h-125v125h125v125h125v-125h125v125h125v-125h125v-125h-125v-125h125v-125h-125v-125h-125v125h-125v-125h-125v125h-125v0v0zM500 375v-125h125v125h-125v0v0z" />
    <glyph glyph-name="dollar" unicode="$" 
d="M250 0v125h125h125h125h125h14v-125h-14v-125h-125v125h-125v-125h-125v125h-125v0v0zM250 363v12v125v14h125v-14v-125v-12h-125v0v0zM363 250v125h12h125h125h125h14v-125h-14h-125h-125h-125h-12v0v0zM363 500v125h12v125h125v-125h125v125h125v-125h125v-125h-125
h-125h-125h-125h-12v0v0zM750 113v12v125v14h125v-14v-125v-12h-125v0v0z" />
    <glyph glyph-name="percent" unicode="%" 
d="M250 500v125h125v-125h-125v0v0zM250 0v125h125v-125h-125v0v0zM375 125v125h125v-125h-125v0v0zM500 250v125h125v-125h-125v0v0zM625 375v125h125v-125h-125v0v0zM750 500v125h125v-125h-125v0v0zM750 0v125h125v-125h-125v0v0z" />
    <glyph glyph-name="ampersand" unicode="&#x26;" 
d="M250 113v12v125v14h125v-14v-125v-12h-125v0v0zM363 0v125h12h125h125v125h-125h-125h-12v125h12h125v125h-125h-12v125h12h125h125v-125v-125h125h14v-125h-14v-125h125v-125h-125h-125h-125h-125h-12v0v0zM250 363v12v125v14h125v-14v-125v-12h-125v0v0zM738 375v125
h12h125v-125h-125h-12v0v0z" />
    <glyph glyph-name="quotesingle" unicode="'" horiz-adv-x="375" 
d="M250 500v125h125v-125h-125v0v0z" />
    <glyph glyph-name="parenleft" unicode="(" horiz-adv-x="500" 
d="M250 113v12v125v125v125v14h125v-14v-125v-125v-125v-12h-125v0v0zM363 0v125h12h125v-125h-125h-12v0v0zM363 500v125h12h125v-125h-125h-12v0v0z" />
    <glyph glyph-name="parenright" unicode=")" horiz-adv-x="500" 
d="M250 0v125h125h14v-125h-14h-125v0v0zM250 500v125h125h14v-125h-14h-125v0v0zM375 113v12v125v125v125v14h125v-14v-125v-125v-125v-12h-125v0v0z" />
    <glyph glyph-name="asterisk" unicode="*" 
d="M250 375v125h125v-125h-125v0v0zM250 125v125h125v-125h-125v0v0zM375 250v125h125v125v125h125v-125v-125h125v-125h-125v-125v-125h-125v125v125h-125v0v0zM750 375v125h125v-125h-125v0v0zM750 125v125h125v-125h-125v0v0z" />
    <glyph glyph-name="plus" unicode="+" horiz-adv-x="625" 
d="M250 250v125h125v125h125v-125h125v-125h-125v-125h-125v125h-125v0v0z" />
    <glyph glyph-name="comma" unicode="," horiz-adv-x="375" 
d="M250 -125v125v125h125v-125v-125h-125v0v0z" />
    <glyph glyph-name="hyphen" unicode="-" horiz-adv-x="625" 
d="M250 250v125h125h125h125v-125h-125h-125h-125v0v0z" />
    <glyph glyph-name="period" unicode="." horiz-adv-x="375" 
d="M250 0v125h125v-125h-125v0v0z" />
    <glyph glyph-name="slash" unicode="/" 
d="M250 0v125h125h14v-125h-14h-125v0v0zM363 125v125h12h125h14v-125h-14h-125h-12v0v0zM488 250v125h12h125h14v-125h-14h-125h-12v0v0zM613 375v125h12h125h14v-125h-14h-125h-12v0v0zM738 500v125h12h125v-125h-125h-12v0v0z" />
    <glyph glyph-name="zero" unicode="0" 
d="M250 113v12v125v125v125v14h125v-14v-125v-125v-125v-12h-125v0v0zM363 0v125h12h125h125h125h14v-125h-14h-125h-125h-125h-12v0v0zM363 500v125h12h125h125h125h14v-125h-14h-125h-125h-125h-12v0v0zM750 113v12v125v125v125v14h125v-14v-125v-125v-125v-12h-125v0v0z
" />
    <glyph glyph-name="one" unicode="1" horiz-adv-x="625" 
d="M250 375v125h125v-125h-125v0v0zM375 500v125h125h125v-125v-125v-125v-125v-125h-125v125v125v125v125h-125v0v0z" />
    <glyph glyph-name="two" unicode="2" 
d="M250 0v125h125h-12v125h12h125h125h14v-125h-14h125h125v-125h-125h-125h-125h-125h-125v0v0zM250 375v125v14h125v-14v-125h-125v0v0zM363 500v125h12h125h125h125h14v-125h-14h-125h-125h-125h-12v0v0zM613 250v125h12h125h14v-125h-14h-125h-12v0v0zM738 375v125h12
v14h125v-14v-125h-125h-12v0v0z" />
    <glyph glyph-name="three" unicode="3" horiz-adv-x="750" 
d="M250 0v125h125h125h125h14v-125h-14h-125h-125h-125v0v0zM250 250v125h125h125h125h14v-125h-14h-125h-125h-125v0v0zM250 500v125h125h125h125h125v-125v-125h-125v125h-125h-125h-125v0v0zM625 113v12v125h125v-125v-12h-125v0v0z" />
    <glyph glyph-name="four" unicode="4" 
d="M250 125v125h125h-12v125h12h125h14v-125h-14h125h125v125v125h-125h-12v125h12h125h125v-125v-125v-125v-125v-125h-125v125h-125h-125h-125h-125v0v0zM488 375v125h12h125h14v-125h-14h-125h-12v0v0z" />
    <glyph glyph-name="five" unicode="5" 
d="M250 0v125h125h125h125h125h14v-125h-14h-125h-125h-125h-125v0v0zM250 250v125v125v125h125h125h125h125h125v-125h-125h-125h-125h-125v-125h125h125h125h14v-125h-14h-125h-125h-125h-125v0v0zM750 113v12v125v14h125v-14v-125v-12h-125v0v0z" />
    <glyph glyph-name="six" unicode="6" 
d="M250 113v12v125v125v125v14h125v-14v-125h125h125h125h14v-125h-14h-125h-125h-125v-125v-12h-125v0v0zM363 0v125h12h125h125h125h14v-125h-14h-125h-125h-125h-12v0v0zM363 500v125h12h125h125h125v-125h-125h-125h-125h-12v0v0zM750 113v12v125v14h125v-14v-125v-12
h-125v0v0z" />
    <glyph glyph-name="seven" unicode="7" 
d="M250 0v125h125h14v-125h-14h-125v0v0zM363 125v125h12h125h14v-125h-14h-125h-12v0v0zM250 500v125h125h125h125h125h125v-125h-125h14v-125h-14h-125h-12v125h12h-125h-125h-125v0v0zM488 250v125h12h125h14v-125h-14h-125h-12v0v0z" />
    <glyph glyph-name="eight" unicode="8" 
d="M250 113v12v125h125v-125v-12h-125v0v0zM363 0v125h12h125h125h125h14v-125h-14h-125h-125h-125h-12v0v0zM363 250v125h12h125h125h125h14v-125h-14h-125h-125h-125h-12v0v0zM250 375v125v14h125v-14v-125h-125v0v0zM363 500v125h12h125h125h125h14v-125h-14h-125h-125
h-125h-12v0v0zM750 113v12v125h125v-125v-12h-125v0v0zM750 375v125v14h125v-14v-125h-125v0v0z" />
    <glyph glyph-name="nine" unicode="9" 
d="M250 363v12v125v14h125v-14v-125v-12h-125v0v0zM363 250v125h12h125h125h125v125v14h125v-14v-125v-125v-125v-12h-125v12v125h-125h-125h-125h-12v0v0zM363 500v125h12h125h125h125h14v-125h-14h-125h-125h-125h-12v0v0zM375 0v125h125h125h125h14v-125h-14h-125h-125
h-125v0v0z" />
    <glyph glyph-name="colon" unicode=":" horiz-adv-x="375" 
d="M250 375v125h125v-125h-125v0v0zM250 0v125h125v-125h-125v0v0z" />
    <glyph glyph-name="semicolon" unicode=";" horiz-adv-x="375" 
d="M250 375v125h125v-125h-125v0v0zM250 -125v125v125h125v-125v-125h-125v0v0z" />
    <glyph glyph-name="less" unicode="&#x3c;" horiz-adv-x="625" 
d="M363 125v125h12h125h14v-125h-14h-125h-12v0v0zM250 250v125h125h14v-125h-14h-125v0v0zM363 375v125h12h125h14v-125h-14h-125h-12v0v0zM488 0v125h12h125v-125h-125h-12v0v0zM488 500v125h12h125v-125h-125h-12v0v0z" />
    <glyph glyph-name="equal" unicode="=" horiz-adv-x="625" 
d="M250 375v125h125h125h125v-125h-125h-125h-125v0v0zM250 125v125h125h125h125v-125h-125h-125h-125v0v0z" />
    <glyph glyph-name="greater" unicode="&#x3e;" horiz-adv-x="625" 
d="M250 0v125h125h14v-125h-14h-125v0v0zM363 125v125h12h125h14v-125h-14h-125h-12v0v0zM363 375v125h12h125h14v-125h-14h-125h-12v0v0zM250 500v125h125h14v-125h-14h-125v0v0zM488 250v125h12h125v-125v-12h-125v12h-12v0v0z" />
    <glyph glyph-name="question" unicode="?" 
d="M250 375v125v14h125v-14v-125h-125v0v0zM363 500v125h12h125h125h125h14v-125h-14h-125h-125h-125h-12v0v0zM500 0v125h125h14v-125h-14h-125v0v0zM613 125v125h12h125h14v-125v-12h-14h-125v12h-12v0v0zM738 250v125h12v125v14h125v-14v-125v-125h-125h-12v0v0z
M500 -250v125h125v-125h-125v0v0z" />
    <glyph glyph-name="at" unicode="@" 
d="M250 113v12v125v125v125v14h125v-14v-125v-125v-125v-12h-125v0v0zM363 0v125h12h125h125h125h125v-125h-125h-125h-125h-125h-12v0v0zM363 500v125h12h125h125h125h14v-125h-14h-125v-125h125h14v-125h-14h-125h-125v125v125h-125h-12v0v0zM750 363v12v125v14h125v-14
v-125v-12h-125v0v0z" />
    <glyph glyph-name="A" unicode="A" 
d="M250 113v12v125v14h125v-14v-125v-12h-125v0v0zM363 0v125h12h125h125h125v125h-125h-125h-125h-12v125h12h125h125h125v125v14h125v-14v-125v-125v-125v-125h-125h-125h-125h-125h-12v0v0zM375 500v125h125h125h125h14v-125h-14h-125h-125h-125v0v0z" />
    <glyph glyph-name="B" unicode="B" 
d="M250 0v125v125v125v125v125h125h125h125h125h14v-125h-14h-125h-125h-125v-125h125h125h125h14v-125h-14h-125h-125h-125v-125h125h125h125h14v-125h-14h-125h-125h-125h-125v0v0zM750 113v12v125h125v-125v-12h-125v0v0zM750 375v125v14h125v-14v-125h-125v0v0z" />
    <glyph glyph-name="C" unicode="C" horiz-adv-x="750" 
d="M250 113v12v125v125v125v14h125v-14v-125v-125v-125v-12h-125v0v0zM363 0v125h12h125h125h125v-125h-125h-125h-125h-12v0v0zM363 500v125h12h125h125h125v-125h-125h-125h-125h-12v0v0z" />
    <glyph glyph-name="D" unicode="D" 
d="M250 0v125v125v125v125v125h125h125h125h125h14v-125h-14h-125h-125h-125v-125v-125v-125h125h125h125h14v-125h-14h-125h-125h-125h-125v0v0zM750 113v12v125v125v125v14h125v-14v-125v-125v-125v-12h-125v0v0z" />
    <glyph glyph-name="E" unicode="E" 
d="M250 113v12v125v125v125v14h125v-14v-125h125h125h125v125v14h125v-14v-125v-125h-125h-125h-125h-125v-125v-12h-125v0v0zM363 0v125h12h125h125h125v-125h-125h-125h-125h-12v0v0zM363 500v125h12h125h125h125h14v-125h-14h-125h-125h-125h-12v0v0z" />
    <glyph glyph-name="F" unicode="F" horiz-adv-x="750" 
d="M250 0v125v125v125v125v14h125v-14v-125h125h125v-125h-125h-125v-125v-125h-125v0v0zM363 500v125h12h125h125h125v-125h-125h-125h-125h-12v0v0z" />
    <glyph glyph-name="G" unicode="G" 
d="M250 113v12v125v125v125v14h125v-14v-125v-125v-125v-12h-125v0v0zM363 0v125h12h125h125h125h14v-125h-14h-125h-125h-125h-12v0v0zM363 500v125h12h125h125h125v-125h-125h-125h-125h-12v0v0zM500 250v125h125h125h125v-125v-125v-12h-125v12v125h-125h-125v0v0z" />
    <glyph glyph-name="H" unicode="H" 
d="M250 0v125v125v125v125v125h125v-125v-125h125h125h125v125v125h125v-125v-125v-125v-125v-125h-125v125v125h-125h-125h-125v-125v-125h-125v0v0z" />
    <glyph glyph-name="I" unicode="I" horiz-adv-x="375" 
d="M250 0v125v125v125v125v125h125v-125v-125v-125v-125v-125h-125v0v0z" />
    <glyph glyph-name="J" unicode="J" 
d="M250 113v12v125v125h125v-125v-125v-12h-125v0v0zM363 0v125h12h125h125h125h14v-125h-14h-125h-125h-125h-12v0v0zM750 113v12v125v125v125v125h125v-125v-125v-125v-125v-12h-125v0v0z" />
    <glyph glyph-name="K" unicode="K" 
d="M250 0v125v125v125v125v125h125v-125v-125h125h125h14v-125h-14h-125h-125v-125v-125h-125v0v0zM613 113v12v125h12h125h14v-125h-14v-12h-125h-12v0v0zM613 375v125v14h12h125v-14h14v-125h-14h-125h-12v0v0zM738 0v125h12v14h125v-14v-125h-125h-12v0v0zM738 500v125
h12h125v-125v-12h-125v12h-12v0v0z" />
    <glyph glyph-name="L" unicode="L" 
d="M250 0v125v125v125v125v125h125v-125v-125v-125v-125h125h125h125h125v-125h-125h-125h-125h-125h-125v0v0z" />
    <glyph glyph-name="M" unicode="M" horiz-adv-x="1125" 
d="M250 0v125v125v125v125v14h125v-14v-125v-125v-125v-125h-125v0v0zM363 500v125h12h125h125v-125h-125h-125h-12v0v0zM625 0v125v125v125v125h125v-125v-125v-125v-125h-125v0v0zM750 500v125h125h125h14v-125h-14h-125h-125v0v0zM1000 0v125v125v125v125v14h125v-14
v-125v-125v-125v-125h-125v0v0z" />
    <glyph glyph-name="N" unicode="N" 
d="M250 0v125v125v125v125v125h125v-125v14h125v-14h14v-125h-14h-125h14v-125h-14v-125v-125h-125v0v0zM488 500v125h12h125h125h14v-125h-14h-125h-125h-12v0v0zM750 0v125v125v125v125v14h125v-14v-125v-125v-125v-125h-125v0v0z" />
    <glyph glyph-name="O" unicode="O" 
d="M250 113v12v125v125v125v14h125v-14v-125v-125v-125v-12h-125v0v0zM363 0v125h12h125h125h125h14v-125h-14h-125h-125h-125h-12v0v0zM363 500v125h12h125h125h125h14v-125h-14h-125h-125h-125h-12v0v0zM750 113v12v125v125v125v14h125v-14v-125v-125v-125v-12h-125v0v0z
" />
    <glyph glyph-name="P" unicode="P" 
d="M250 0v125v125v125v125v125h125h125h125h125h14v-125h-14h-125h-125h-125v-125h125h125h125h14v-125h-14h-125h-125h-125v-125v-125h-125v0v0zM750 363v12v125v14h125v-14v-125v-12h-125v0v0z" />
    <glyph glyph-name="Q" unicode="Q" 
d="M250 113v12v125v125v125v14h125v-14v-125v-125v-125v-12h-125v0v0zM363 0v125h12h125h125v125h125v125v125v14h125v-14v-125v-125v-125v-125h-125h-125h-125h-125h-12v0v0zM363 500v125h12h125h125h125h14v-125h-14h-125h-125h-125h-12v0v0z" />
    <glyph glyph-name="R" unicode="R" 
d="M250 0v125v125v125v125v125h125v-125v14h125v-14v-125h-125v-125v-125v-125h-125v0v0zM488 500v125h12h125h125h14v-125h-14h-125h-125h-12v0v0zM750 375v125v14h125v-14v-125h-125v0v0z" />
    <glyph glyph-name="S" unicode="S" 
d="M250 0v125h125h125h125h125h14v-125h-14h-125h-125h-125h-125v0v0zM250 363v12v125v14h125v-14v-125v-12h-125v0v0zM363 250v125h12h125h125h125h14v-125h-14h-125h-125h-125h-12v0v0zM363 500v125h12h125h125h125h125v-125h-125h-125h-125h-125h-12v0v0zM750 113v12v125
v14h125v-14v-125v-12h-125v0v0z" />
    <glyph glyph-name="T" unicode="T" 
d="M250 500v125h125h125h125h125h125v-125h-125h-125v-125v-125v-125v-125h-125v125v125v125v125h-125h-125v0v0z" />
    <glyph glyph-name="U" unicode="U" 
d="M250 113v12v125v125v125v125h125v-125v-125v-125v-125v-12h-125v0v0zM363 0v125h12h125h125h125h14v-125h-14h-125h-125h-125h-12v0v0zM750 113v12v125v125v125v125h125v-125v-125v-125v-125v-12h-125v0v0z" />
    <glyph glyph-name="V" unicode="V" 
d="M250 363v12v125v125h125v-125h14v-125h-14v-12h-125v0v0zM363 250v125h12h125v-125v-125v-12h-125v12v125h-12v0v0zM488 0v125h12h125h14v-125h-14h-125h-12v0v0zM625 113v12v125v125h125h14v-125h-14v-125v-12h-125v0v0zM738 375v125h12v125h125v-125v-125v-12h-125v12
h-12v0v0z" />
    <glyph glyph-name="W" unicode="W" horiz-adv-x="1125" 
d="M250 113v12v125v125v125v125h125v-125v-125v-125v-125v-12h-125v0v0zM363 0v125h12h125h125v-125h-125h-125h-12v0v0zM625 113v12v125v125v125v125h125v-125v-125v-125v-125v-12h-125v0v0zM750 0v125h125h125h14v-125h-14h-125h-125v0v0zM1000 113v12v125v125v125v125
h125v-125v-125v-125v-125v-12h-125v0v0z" />
    <glyph glyph-name="X" unicode="X" 
d="M250 0v125v14h125v-14h14v-125h-14h-125v0v0zM363 125v125v14h12h125v-14h14v-125v-12h-14h-125v12h-12v0v0zM363 363v12v125h12v14h125h14v-14v-125h-14v-12h-125h-12v0v0zM250 488v12v125h125h14v-125h-14v-12h-125v0v0zM613 113v12v125h12h125h14v-125h-14v-12h-125
h-12v0v0zM500 250v125h125v-125h-125v0v0zM613 375v125v14h12h125v-14h14v-125v-12h-14h-125v12h-12v0v0zM738 0v125h12v14h125v-14v-125h-125h-12v0v0zM738 500v125h12h125v-125v-12h-125v12h-12v0v0z" />
    <glyph glyph-name="Y" unicode="Y" 
d="M250 488v12v125h125h14v-125h-14v-12h-125v0v0zM363 375v125h12v14h125v-14v-125h-125h-12v0v0zM250 0v125h125h125h14v-125h-14h-125h-125v0v0zM500 113v12v125v125h125h14v-125h-14v-125v-12h-125v0v0zM625 375v125v14h125v-14h14v-125h-14h-125v0v0zM738 500v125h12
h125v-125v-12h-125v12h-12v0v0z" />
    <glyph glyph-name="Z" unicode="Z" 
d="M250 0v125h125h-12v125h12h125h14v-125h-14h125h125h125v-125h-125h-125h-125h-125h-125v0v0zM250 500v125h125h125h125h125h125v-125h-125h14v-125h-14h-125h-12v125h12h-125h-125h-125v0v0zM488 250v125h12h125h14v-125h-14h-125h-12v0v0z" />
    <glyph glyph-name="bracketleft" unicode="[" horiz-adv-x="625" 
d="M250 0v125v125v125v125v125h125h125v-125h-125v-125v-125v-125h125v-125h-125h-125v0v0z" />
    <glyph glyph-name="backslash" unicode="\" 
d="M250 500v125h125v-125h-125v0v0zM375 375v125h125v-125h-125v0v0zM500 250v125h125v-125h-125v0v0zM625 125v125h125v-125h-125v0v0zM750 0v125h125v-125h-125v0v0z" />
    <glyph glyph-name="bracketright" unicode="]" horiz-adv-x="625" 
d="M250 0v125h125v125v125v125h-125v125h125h125v-125v-125v-125v-125v-125h-125h-125v0v0z" />
    <glyph glyph-name="asciicircum" unicode="^" horiz-adv-x="625" 
d="M250 750v125h125v-125h-125v0v0zM375 875v125h125v-125h-125v0v0zM500 750v125h125v-125h-125v0v0z" />
    <glyph glyph-name="underscore" unicode="_" horiz-adv-x="625" 
d="M250 0v125h125h125h125v-125h-125h-125h-125v0v0z" />
    <glyph glyph-name="grave" unicode="`" horiz-adv-x="500" 
d="M250 863v12v125h125h14v-125h-14v-12h-125v0v0zM363 750v125h12v14h125v-14v-125h-125h-12v0v0z" />
    <glyph glyph-name="a" unicode="a" 
d="M250 113v12v125v14h125v-14v-125v-12h-125v0v0zM363 0v125h12h125h125h125v125h-125h-125h-125h-12v125h12h125h125h125v125v14h125v-14v-125v-125v-125v-125h-125h-125h-125h-125h-12v0v0zM375 500v125h125h125h125h14v-125h-14h-125h-125h-125v0v0z" />
    <glyph glyph-name="b" unicode="b" 
d="M250 0v125v125v125v125v125h125h125h125h125h14v-125h-14h-125h-125h-125v-125h125h125h125h14v-125h-14h-125h-125h-125v-125h125h125h125h14v-125h-14h-125h-125h-125h-125v0v0zM750 113v12v125h125v-125v-12h-125v0v0zM750 375v125v14h125v-14v-125h-125v0v0z" />
    <glyph glyph-name="c" unicode="c" horiz-adv-x="750" 
d="M250 113v12v125v125v125v14h125v-14v-125v-125v-125v-12h-125v0v0zM363 0v125h12h125h125h125v-125h-125h-125h-125h-12v0v0zM363 500v125h12h125h125h125v-125h-125h-125h-125h-12v0v0z" />
    <glyph glyph-name="d" unicode="d" 
d="M250 0v125v125v125v125v125h125h125h125h125v-125h-125h-125h-125v-125v-125v-125h125h125h125v-125h-125h-125h-125h-125v0v0zM750 125v125v125v125h125v-125v-125v-125h-125v0v0z" />
    <glyph glyph-name="e" unicode="e" 
d="M250 113v12v125v125v125v14h125v-14v-125h125h125h125v125v14h125v-14v-125v-125h-125h-125h-125h-125v-125v-12h-125v0v0zM363 0v125h12h125h125h125v-125h-125h-125h-125h-12v0v0zM363 500v125h12h125h125h125h14v-125h-14h-125h-125h-125h-12v0v0z" />
    <glyph glyph-name="f" unicode="f" horiz-adv-x="750" 
d="M250 0v125v125v125v125v14h125v-14v-125h125h125v-125h-125h-125v-125v-125h-125v0v0zM363 500v125h12h125h125h125v-125h-125h-125h-125h-12v0v0z" />
    <glyph glyph-name="g" unicode="g" 
d="M250 113v12v125v125v125v14h125v-14v-125v-125v-125v-12h-125v0v0zM363 0v125h12h125h125h125h14v-125h-14h-125h-125h-125h-12v0v0zM363 500v125h12h125h125h125v-125h-125h-125h-125h-12v0v0zM500 250v125h125h125h125v-125v-125v-12h-125v12v125h-125h-125v0v0z" />
    <glyph glyph-name="h" unicode="h" 
d="M250 0v125v125v125v125v125h125v-125v-125h125h125h125v125v125h125v-125v-125v-125v-125v-125h-125v125v125h-125h-125h-125v-125v-125h-125v0v0z" />
    <glyph glyph-name="i" unicode="i" horiz-adv-x="375" 
d="M250 500v125h125v-125h-125v0v0zM250 0v125v125v125h125v-125v-125v-125h-125v0v0z" />
    <glyph glyph-name="j" unicode="j" 
d="M250 113v12v125v125h125v-125v-125v-12h-125v0v0zM363 0v125h12h125h125h125h14v-125h-14h-125h-125h-125h-12v0v0zM750 113v12v125v125v125v125h125v-125v-125v-125v-125v-12h-125v0v0z" />
    <glyph glyph-name="k" unicode="k" 
d="M250 0v125v125v125v125v125h125v-125v-125h125v14h125v-14h14v-125h-14v-12h-125v12h-125v-125v-125h-125v0v0zM613 113v12v125h12h125h14v-125h-14v-12h-125h-12v0v0zM613 375v125v14h12h125v-14h14v-125h-14h-125h-12v0v0zM738 0v125h12v14h125v-14v-125h-125h-12v0v0z
M738 500v125h12h125v-125v-12h-125v12h-12v0v0z" />
    <glyph glyph-name="l" unicode="l" 
d="M250 0v125v125v125v125v125h125v-125v-125v-125v-125h125h125h125h125v-125h-125h-125h-125h-125h-125v0v0z" />
    <glyph glyph-name="m" unicode="m" horiz-adv-x="1125" 
d="M250 0v125v125v125v125v14h125v-14v-125v-125v-125v-125h-125v0v0zM363 500v125h12h125h125v-125h-125h-125h-12v0v0zM625 0v125v125v125v125v14h125v-14v-125v-125v-125v-125h-125v0v0zM750 500v125h125h125h14v-125h-14h-125h-125v0v0zM1000 0v125v125v125v125v14h125
v-14v-125v-125v-125v-125h-125v0v0z" />
    <glyph glyph-name="n" unicode="n" 
d="M250 0v125v125v125v125v125h125v-125v14h125v-14v-125h-125v-125v-125v-125h-125v0v0zM488 500v125h12h125h125h14v-125h-14h-125h-125h-12v0v0zM750 0v125v125v125v125v14h125v-14v-125v-125v-125v-125h-125v0v0z" />
    <glyph glyph-name="o" unicode="o" 
d="M250 113v12v125v125v125v14h125v-14v-125v-125v-125v-12h-125v0v0zM363 0v125h12h125h125h125h14v-125h-14h-125h-125h-125h-12v0v0zM363 500v125h12h125h125h125h14v-125h-14h-125h-125h-125h-12v0v0zM750 113v12v125v125v125v14h125v-14v-125v-125v-125v-12h-125v0v0z
" />
    <glyph glyph-name="p" unicode="p" 
d="M250 0v125v125v125v125v125h125h125h125h125h14v-125h-14h-125h-125h-125v-125h125h125h125h14v-125h-14h-125h-125h-125v-125v-125h-125v0v0zM750 363v12v125v14h125v-14v-125v-12h-125v0v0z" />
    <glyph glyph-name="q" unicode="q" 
d="M250 113v12v125v125v125v14h125v-14v-125v-125v-125v-12h-125v0v0zM363 0v125h12h125h125v125h125v125v125v14h125v-14v-125v-125v-125v-125h-125h-125h-125h-125h-12v0v0zM363 500v125h12h125h125h125h14v-125h-14h-125h-125h-125h-12v0v0z" />
    <glyph glyph-name="r" unicode="r" 
d="M250 0v125v125v125v125v125h125v-125v14h125v-14h14v-125h-14h-125h14v-125h-14v-125v-125h-125v0v0zM488 500v125h12h125h125h14v-125h-14h-125h-125h-12v0v0zM750 375v125v14h125v-14v-125h-125v0v0z" />
    <glyph glyph-name="s" unicode="s" 
d="M250 0v125h125h125h125h125h14v-125h-14h-125h-125h-125h-125v0v0zM250 363v12v125v14h125v-14v-125v-12h-125v0v0zM363 250v125h12h125h125h125h14v-125h-14h-125h-125h-125h-12v0v0zM363 500v125h12h125h125h125h125v-125h-125h-125h-125h-125h-12v0v0zM750 113v12v125
v14h125v-14v-125v-12h-125v0v0z" />
    <glyph glyph-name="t" unicode="t" 
d="M250 500v125h125h125h125h125h125v-125h-125h-125v-125v-125v-125v-125h-125v125v125v125v125h-125h-125v0v0z" />
    <glyph glyph-name="u" unicode="u" 
d="M250 113v12v125v125v125v125h125v-125v-125v-125v-125v-12h-125v0v0zM363 0v125h12h125h125h14v-125h-14h-125h-125h-12v0v0zM613 125v125h12h125h-12v125h12v125v125h125v-125v-125v-125v-125v-125h-125v125v-12h-125v12h-12v0v0z" />
    <glyph glyph-name="v" unicode="v" 
d="M363 250v125h12h125v-125v-125h-125v125h-12v0v0zM250 375v125v125h125v-125h14v-125h-14h-125v0v0zM488 0v125h12h125h14v-125h-14h-125h-12v0v0zM625 125v125v125h125h14v-125h-14v-125h-125v0v0zM738 375v125h12v125h125v-125v-125h-125h-12v0v0z" />
    <glyph glyph-name="w" unicode="w" horiz-adv-x="1125" 
d="M250 113v12v125v125v125v125h125v-125v-125v-125v-125v-12h-125v0v0zM363 0v125h12h125h125v-125h-125h-125h-12v0v0zM625 125v125v125v125v125h125v-125v-125v-125v-125h-125v0v0zM750 0v125h125h125h14v-125h-14h-125h-125v0v0zM1000 113v12v125v125v125v125h125v-125
v-125v-125v-125v-12h-125v0v0z" />
    <glyph glyph-name="x" unicode="x" 
d="M250 0v125h125h14v-125h-14h-125v0v0zM363 125v125h12h125h14v-125h-14h-125h-12v0v0zM250 500v125h125h14v-125h-14h-125v0v0zM488 250v125h12h125h14v-125h-14h-125h-12v0v0zM375 375v125h125h14v-125h-14h-125v0v0zM613 125v125h12h125h14v-125h-14h-125h-12v0v0z
M613 375v125h12h125h14v-125h-14h-125h-12v0v0zM738 0v125h12h125v-125h-125h-12v0v0zM738 500v125h12h125v-125h-125h-12v0v0z" />
    <glyph glyph-name="y" unicode="y" 
d="M250 0v125h125h125h14v-125h-14h-125h-125v0v0zM363 363v12v125h12h125h14v-125h-14v-12h-125h-12v0v0zM250 488v12v125h125h14v-125h-14v-12h-125v0v0zM488 250v125h12h125h14v-125h-14v-125v-12h-125v12v125h-12v0v0zM613 375v125h12h125h14v-125v-12h-14h-125v12h-12
v0v0zM738 500v125h12h125v-125v-12h-125v12h-12v0v0z" />
    <glyph glyph-name="z" unicode="z" 
d="M250 0v125h125v125h125h14v-125h-14h125h125h125v-125h-125h-125h-125h-125h-125v0v0zM250 500v125h125h125h125h125h125v-125h-125h14v-125h-14h-125h-12v125h12h-125h-125h-125v0v0zM488 250v125h12h125h14v-125h-14h-125h-12v0v0z" />
    <glyph glyph-name="braceleft" unicode="{" horiz-adv-x="750" 
d="M363 125v125h12h125h14v-125h-14h125v-125h-125h-125v125h-12v0v0zM250 250v125h125h14v-125h-14h-125v0v0zM363 375v125h12v125h125h125v-125h-125h14v-125h-14h-125h-12v0v0z" />
    <glyph glyph-name="bar" unicode="|" horiz-adv-x="375" 
d="M250 -125v125v125v125v125v125v125v125h125v-125v-125v-125v-125v-125v-125v-125h-125v0v0z" />
    <glyph glyph-name="braceright" unicode="}" horiz-adv-x="750" 
d="M250 0v125h125v125h125h14v-125h-14v-125h-125h-125v0v0zM250 500v125h125h125v-125h14v-125h-14h-125v125h-125v0v0zM488 250v125h12v14h125v-14v-125v-12h-125v12h-12v0v0z" />
    <glyph glyph-name="asciitilde" unicode="~" horiz-adv-x="750" 
d="M250 750v125h125v-125h-125v0v0zM375 875v125h125v-125h-125v0v0zM500 750v125h125v-125h-125v0v0zM625 875v125h125v-125h-125v0v0z" />
    <glyph glyph-name="Adieresis" unicode="&#xa0;" horiz-adv-x="375" 
 />
    <glyph glyph-name="Aring" unicode="&#xa1;" horiz-adv-x="375" 
d="M250 500v125h125v-125h-125v0v0zM250 0v125v125v125h125v-125v-125v-125h-125v0v0z" />
    <glyph glyph-name="Ccedilla" unicode="&#xa2;" horiz-adv-x="750" 
d="M250 113v12v125v125v125v14h125v-14v-125h125h125v-125h-125h-125v-125v-12h-125v0v0zM363 0v125h12h125h125h125v-125h-125h-125h-125h-12v0v0zM363 500v125h12h125h125h125v-125h-125h-125h-125h-12v0v0z" />
    <glyph glyph-name="Eacute" unicode="&#xa3;" 
d="M250 250v125h125v125v14h125v-14v-125h125h125v-125h-125h-125v-125h125h125h125v-125h-125h-125h-125h-125v125v125h-125v0v0zM488 500v125h12h125h125v-125h-125h-125h-12v0v0z" />
    <glyph glyph-name="Ntilde" unicode="&#xa4;" horiz-adv-x="750" 
d="M250 250v125h125v125v14h125v-14v-125h125h125v-125h-125h-125v-125v-12h-125v12v125h-125v0v0zM488 -12v12v125h12h125h125h125v-125h-125h-125v-12h-125h-12v0v0zM488 500v125h12h125h125h125v-125h-125h-125h-125h-12v0v0z" />
    <glyph glyph-name="Odieresis" unicode="&#xa5;" horiz-adv-x="750" 
d="M250 875v125h125v-125h-125v0v0zM250 0v125h125v-125h-125v0v0z" />
    <glyph glyph-name="Udieresis" unicode="&#xa6;" horiz-adv-x="750" 
d="M250 875v125h125v-125h-125v0v0zM250 0v125h125v-125h-125v0v0z" />
    <glyph glyph-name="aacute" unicode="&#xa7;" horiz-adv-x="750" 
d="M250 875v125h125v-125h-125v0v0zM250 0v125h125v-125h-125v0v0z" />
    <glyph glyph-name="agrave" unicode="&#xa8;" horiz-adv-x="625" 
d="M250 750v125h125v-125h-125v0v0zM500 750v125h125v-125h-125v0v0z" />
    <glyph glyph-name="acircumflex" unicode="&#xa9;" 
d="M250 113v12v125v125v125v14h125v-14v-125v-125v-125v-12h-125v0v0zM363 0v125h12h125h125h125h14v-125h-14h-125h-125h-125h-12v0v0zM363 500v125h12h125h125h125h14v-125h-14h-125h-125h-125h-12v0v0zM750 113v12v125v125v125v14h125v-14v-125v-125v-125v-12h-125v0v0z
M500 250v125h125v-125h-125v0v0z" />
    <glyph glyph-name="adieresis" unicode="&#xaa;" horiz-adv-x="625" 
d="M250 488v12v125v14h125v-14v-125v-12h-125v0v0zM363 375v125h12h125v125h-125h-12v125h12h125h125v-125v-125v-125h-125h-125h-12v0v0zM250 125v125h125h125h125v-125h-125h-125h-125v0v0z" />
    <glyph glyph-name="atilde" unicode="&#xab;" 
d="M363 125v125h12h125h14v-125h-14h-125h-12v0v0zM250 250v125h125h14v-125h-14h-125v0v0zM363 375v125h12h125h14v-125h-14h-125h-12v0v0zM488 0v125h12h125v-125h-125h-12v0v0zM488 500v125h12h125v-125h-125h-12v0v0zM613 125v125h12h125h14v-125h-14h-125h-12v0v0z
M500 250v125h125h14v-125h-14h-125v0v0zM613 375v125h12h125h14v-125h-14h-125h-12v0v0zM738 0v125h12h125v-125h-125h-12v0v0zM738 500v125h12h125v-125h-125h-12v0v0z" />
    <glyph glyph-name="aring" unicode="&#xac;" horiz-adv-x="750" 
d="M250 375v125h125h125h125h125v-125v-125h-125v125h-125h-125h-125v0v0z" />
    <glyph glyph-name="ccedilla" unicode="&#xad;" horiz-adv-x="625" 
d="M250 375v125h125h125h125v-125h-125h-125h-125v0v0z" />
    <glyph glyph-name="eacute" unicode="&#xae;" 
d="M250 113v12v125v125v125v14h125v-14v-125v-125v-125v-12h-125v0v0zM363 0v125h12h125h125h125h14v-125h-14h-125h-125h-125h-12v0v0zM363 500v125h12h125h125h125h14v-125h-14h-125h-125h-125h-12v0v0zM750 113v12v125v125v125v14h125v-14v-125v-125v-125v-12h-125v0v0z
M500 250v125h125v-125h-125v0v0z" />
    <glyph glyph-name="egrave" unicode="&#xaf;" horiz-adv-x="625" 
d="M250 500v125h125h125h125v-125h-125h-125h-125v0v0z" />
    <glyph glyph-name="ecircumflex" unicode="&#xb0;" horiz-adv-x="625" 
d="M250 488v12v125v14h125v-14v-125v-12h-125v0v0zM363 375v125h12h125h14v-125h-14h-125h-12v0v0zM363 625v125h12h125h14v-125h-14h-125h-12v0v0zM500 488v12v125v14h125v-14v-125v-12h-125v0v0z" />
    <glyph glyph-name="edieresis" unicode="&#xb1;" horiz-adv-x="625" 
d="M250 375v125h125v125h125v-125h125v-125h-125v-125h-125v125h-125v0v0zM250 0v125h125h125h125v-125h-125h-125h-125v0v0z" />
    <glyph glyph-name="iacute" unicode="&#xb2;" horiz-adv-x="750" 
 />
    <glyph glyph-name="igrave" unicode="&#xb3;" horiz-adv-x="750" 
 />
    <glyph glyph-name="icircumflex" unicode="&#xb4;" horiz-adv-x="500" 
d="M250 750v125h125v-125h-125v0v0zM375 875v125h125v-125h-125v0v0z" />
    <glyph glyph-name="idieresis" unicode="&#xb5;" horiz-adv-x="750" 
d="M250 -125v125v125v125v125v125h125v-125v-125h125h125h14v-125h-14h-125h-125v-125v-125h-125v0v0zM625 238v12v125v125h125v-125v-125v-12h-125v0v0z" />
    <glyph glyph-name="ntilde" unicode="&#xb6;" 
d="M250 250v125v125h125h125h125h125h125v-125h-125v-125v-125v-125h-125v125v125v125h-125v-125v-125v-125h-125v125v125h-125v0v0z" />
    <glyph glyph-name="oacute" unicode="&#xb7;" horiz-adv-x="500" 
d="M250 250v125v125h125h125v-125v-125h-125h-125v0v0z" />
    <glyph glyph-name="ograve" unicode="&#xb8;" horiz-adv-x="500" 
d="M250 -375v125h125h14v-125h-14h-125v0v0zM250 -125v125h125h14v-125h-14h-125v0v0zM375 -262v12v125v14h125v-14v-125v-12h-125v0v0z" />
    <glyph glyph-name="ocircumflex" unicode="&#xb9;" horiz-adv-x="750" 
d="M250 875v125h125v-125h-125v0v0zM250 0v125h125v-125h-125v0v0z" />
    <glyph glyph-name="odieresis" unicode="&#xba;" horiz-adv-x="625" 
d="M250 488v12v125v14h125v-14v-125v-12h-125v0v0zM363 375v125h12h125h14v-125h-14h-125h-12v0v0zM363 625v125h12h125h14v-125h-14h-125h-12v0v0zM500 488v12v125v14h125v-14v-125v-12h-125v0v0zM250 125v125h125h125h125v-125h-125h-125h-125v0v0z" />
    <glyph glyph-name="otilde" unicode="&#xbb;" 
d="M250 0v125h125h14v-125h-14h-125v0v0zM363 125v125h12h125h14v-125h-14h-125h-12v0v0zM363 375v125h12h125h14v-125h-14h-125h-12v0v0zM250 500v125h125h14v-125h-14h-125v0v0zM488 250v125h12h125v-125h-125h-12v0v0zM500 0v125h125h14v-125h-14h-125v0v0zM613 125v125
h12h125h14v-125h-14h-125h-12v0v0zM613 375v125h12h125h14v-125h-14h-125h-12v0v0zM500 500v125h125h14v-125h-14h-125v0v0zM738 250v125h12h125v-125h-125h-12v0v0z" />
    <glyph glyph-name="uacute" unicode="&#xbc;" horiz-adv-x="750" 
d="M250 875v125h125v-125h-125v0v0zM250 0v125h125v-125h-125v0v0z" />
    <glyph glyph-name="ugrave" unicode="&#xbd;" horiz-adv-x="750" 
d="M250 875v125h125v-125h-125v0v0zM250 0v125h125v-125h-125v0v0z" />
    <glyph glyph-name="ucircumflex" unicode="&#xbe;" horiz-adv-x="750" 
d="M250 875v125h125v-125h-125v0v0zM250 0v125h125v-125h-125v0v0z" />
    <glyph glyph-name="udieresis" unicode="&#xbf;" 
d="M250 -137v12v125v125v14h125v-14v-125v-125v-12h-125v0v0zM363 -250v125h12h125h125h125h14v-125h-14h-125h-125h-125h-12v0v0zM363 125v125v14h12h125v-14h14v-125h-14h-125h-12v0v0zM488 250v125h12h125v-125v-12h-125v12h-12v0v0zM750 -137v12v125h125v-125v-12h-125
v0v0zM500 500v125h125v-125h-125v0v0z" />
    <glyph glyph-name="dagger" unicode="&#xc0;" 
d="M488 750v125h12h125v-125h-125h-12v0v0zM375 875v125h125h14v-125h-14h-125v0v0zM250 113v12v125v14h125v-14v-125v-12h-125v0v0zM363 0v125h12h125h125h125v125h-125h-125h-125h-12v125h12h125h125h125v125v14h125v-14v-125v-125v-125v-125h-125h-125h-125h-125h-12v0v0
zM375 500v125h125h125h125h14v-125h-14h-125h-125h-125v0v0z" />
    <glyph glyph-name="degree" unicode="&#xc1;" 
d="M500 750v125v14h125v-14h14v-125h-14h-125v0v0zM613 875v125h12h125v-125v-12h-125v12h-12v0v0zM250 113v12v125v14h125v-14v-125v-12h-125v0v0zM363 0v125h12h125h125h125v125h-125h-125h-125h-12v125h12h125h125h125v125v14h125v-14v-125v-125v-125v-125h-125h-125
h-125h-125h-12v0v0zM375 500v125h125h125h125h14v-125h-14h-125h-125h-125v0v0z" />
    <glyph glyph-name="cent" unicode="&#xc2;" 
d="M375 750v125h125h14v-125h-14h-125v0v0zM488 875v125h12h125h14v-125h-14h-125h-12v0v0zM613 750v125h12h125v-125h-125h-12v0v0zM250 113v12v125v14h125v-14v-125v-12h-125v0v0zM363 0v125h12h125h125h125v125h-125h-125h-125h-12v125h12h125h125h125v125v14h125v-14
v-125v-125v-125v-125h-125h-125h-125h-125h-12v0v0zM375 500v125h125h125h125h14v-125h-14h-125h-125h-125v0v0z" />
    <glyph glyph-name="sterling" unicode="&#xc3;" 
d="M375 750v125v14h125v-14v-125h-125v0v0zM500 863v12v125h125v-125v-12h-125v0v0zM625 750v125v14h125v-14v-125h-125v0v0zM750 863v12v125h125v-125v-12h-125v0v0zM250 113v12v125v14h125v-14v-125v-12h-125v0v0zM363 0v125h12h125h125h125v125h-125h-125h-125h-12v125
h12h125h125h125v125v14h125v-14v-125v-125v-125v-125h-125h-125h-125h-125h-12v0v0zM375 500v125h125h125h125h14v-125h-14h-125h-125h-125v0v0z" />
    <glyph glyph-name="section" unicode="&#xc4;" 
d="M375 750v125h125v-125h-125v0v0zM625 750v125h125v-125h-125v0v0zM250 113v12v125v14h125v-14v-125v-12h-125v0v0zM363 0v125h12h125h125h125v125h-125h-125h-125h-12v125h12h125h125h125v125v14h125v-14v-125v-125v-125v-125h-125h-125h-125h-125h-12v0v0zM375 500v125
h125h125h125h14v-125h-14h-125h-125h-125v0v0z" />
    <glyph glyph-name="bullet" unicode="&#xc5;" 
d="M250 113v12v125v14h125v-14v-125v-12h-125v0v0zM363 0v125h12h125h125h125v125h-125h-125h-125h-12v125h12h125h125h125v125v14h125v-14v-125v-125v-125v-125h-125h-125h-125h-125h-12v0v0zM375 500v125h125h-12v125h12h125h14v-125h-14h125h14v-125h-14h-125h-125h-125
v0v0zM375 738v12v125v14h125v-14v-125v-12h-125v0v0zM488 875v125h12h125h14v-125h-14h-125h-12v0v0zM625 738v12v125v14h125v-14v-125v-12h-125v0v0z" />
    <glyph glyph-name="paragraph" unicode="&#xc6;" horiz-adv-x="1125" 
d="M250 113v12v125v14h125v-14v-125v-12h-125v0v0zM363 0v125h12h125h125v125h-125h-125h-12v125h12h125h125v125v14h125v-14v-125h125h125h14v-125h-14h-125h-125v-125h125h125v-125h-125h-125h-125h-125h-125h-12v0v0zM375 500v125h125h125h14v-125h-14h-125h-125v0v0z
M738 500v125h12h125h125h14v-125h-14h-125h-125h-12v0v0zM1000 363v12v125v14h125v-14v-125v-12h-125v0v0z" />
    <glyph glyph-name="germandbls" unicode="&#xc7;" horiz-adv-x="750" 
d="M250 113v12v125v125v125v14h125v-14v-125v-125v-125v-12h-125v0v0zM363 0v125h12h125h125h125v-125v-12h-125v12h14v-125h-14h-125v125h-125h-12v0v0zM363 500v125h12h125h125h125v-125h-125h-125h-125h-12v0v0zM500 -375v125h125h14v-125h-14h-125v0v0zM625 -262v12v125
v14h125h14v-14v-125v-12h-14h-125v0v0z" />
    <glyph glyph-name="registered" unicode="&#xc8;" 
d="M488 750v125h12v14h125v-14v-125h-125h-12v0v0zM375 875v125h125h14v-125h-14h-125v0v0zM250 113v12v125v125v125v14h125v-14v-125h125h125h125v125v14h125v-14v-125v-125h-125h-125h-125h-125v-125v-12h-125v0v0zM363 0v125h12h125h125h125v-125h-125h-125h-125h-12v0v0
zM363 500v125h12h125h125h125h14v-125h-14h-125h-125h-125h-12v0v0z" />
    <glyph glyph-name="copyright" unicode="&#xc9;" 
d="M500 750v125h125h14v-125h-14h-125v0v0zM613 875v125h12h125v-125h-125h-12v0v0zM250 113v12v125v125v125v14h125v-14v-125h125h125h125v125v14h125v-14v-125v-125h-125h-125h-125h-125v-125v-12h-125v0v0zM363 0v125h12h125h125h125v-125h-125h-125h-125h-12v0v0z
M363 500v125h12h125h125h125h14v-125h-14h-125h-125h-125h-12v0v0z" />
    <glyph glyph-name="trademark" unicode="&#xca;" 
d="M375 750v125v14h125v-14h14v-125h-14h-125v0v0zM488 875v125h12h125h14v-125h-14h-125h-12v0v0zM613 750v125h12h125v-125h-125h-12v0v0zM250 113v12v125v125v125v14h125v-14v-125h125h125h125v125v14h125v-14v-125v-125h-125h-125h-125h-125v-125v-12h-125v0v0zM363 0
v125h12h125h125h125v-125h-125h-125h-125h-12v0v0zM363 500v125h12h125h125h125h14v-125h-14h-125h-125h-125h-12v0v0z" />
    <glyph glyph-name="acute" unicode="&#xcb;" 
d="M375 750v125v14h125v-14h14v-125h-14h-125v0v0zM500 863v12v125h125v-125v-12h-125v0v0zM625 750v125v14h125v-14v-125h-125v0v0zM738 875v125h12h125v-125v-12h-125v12h-12v0v0zM250 113v12v125v125v125v14h125v-14v-125h125h125h125v125v14h125v-14v-125v-125h-125
h-125h-125h-125v-125v-12h-125v0v0zM363 0v125h12h125h125h125v-125h-125h-125h-125h-12v0v0zM363 500v125h12h125h125h125h14v-125h-14h-125h-125h-125h-12v0v0z" />
    <glyph glyph-name="dieresis" unicode="&#xcc;" horiz-adv-x="375" 
d="M250 613v12v125h125h14v-125h-14v-12h-125v0v0zM363 500v125h12v14h125v-14v-125h-125h-12v0v0zM375 0v125v125v125h125v-125v-125v-125h-125v0v0z" />
    <glyph glyph-name="notequal" unicode="&#xcd;" horiz-adv-x="375" 
d="M250 500v125v14h125v-14h14v-125h-14h-125v0v0zM363 625v125h12h125v-125v-12h-125v12h-12v0v0zM250 0v125v125v125h125v-125v-125v-125h-125v0v0z" />
    <glyph glyph-name="AE" unicode="&#xce;" horiz-adv-x="375" 
d="M250 500v125v14h125v-14v-125h-125v0v0zM363 625v125h12h125h14v-125h-14h-125h-12v0v0zM500 500v125v14h125v-14v-125h-125v0v0zM375 0v125v125v125h125v-125v-125v-125h-125v0v0z" />
    <glyph glyph-name="Oslash" unicode="&#xcf;" horiz-adv-x="375" 
d="M250 500v125h125v-125h-125v0v0zM375 0v125v125v125h125v-125v-125v-125h-125v0v0zM500 500v125h125v-125h-125v0v0z" />
    <glyph glyph-name="infinity" unicode="&#xd0;" horiz-adv-x="750" 
d="M250 0v125v125v125v125v125h125h125h125h14v-125h-14h-125h-125v-125h125v-125h-125v-125h125h125h14v-125h-14h-125h-125h-125v0v0zM625 113v12v125v125v125v14h125v-14v-125v-125v-125v-12h-125v0v0z" />
    <glyph glyph-name="plusminus" unicode="&#xd1;" 
d="M250 0v125v125v125v125v125h125v-125v14h125v-14v-125h-125v-125v-125v-125h-125v0v0zM488 500v125h12h125h125h14v-125h-14h-125h-125h-12v0v0zM750 0v125v125v125v125v14h125v-14v-125v-125v-125v-125h-125v0v0zM375 750v125v14h125v-14v-125h-125v0v0zM500 863v12v125
h125v-125v-12h-125v0v0zM625 750v125v14h125v-14v-125h-125v0v0zM750 863v12v125h125v-125v-12h-125v0v0z" />
    <glyph glyph-name="lessequal" unicode="&#xd2;" 
d="M375 863v12v125h125h14v-125h-14v-12h-125v0v0zM488 750v125h12v14h125v-14v-125h-125h-12v0v0zM250 113v12v125v125v125v14h125v-14v-125v-125v-125v-12h-125v0v0zM363 0v125h12h125h125h125h14v-125h-14h-125h-125h-125h-12v0v0zM363 500v125h12h125h125h125h14v-125
h-14h-125h-125h-125h-12v0v0zM750 113v12v125v125v125v14h125v-14v-125v-125v-125v-12h-125v0v0z" />
    <glyph glyph-name="greaterequal" unicode="&#xd3;" 
d="M500 750v125v14h125v-14h14v-125h-14h-125v0v0zM613 875v125h12h125v-125v-12h-125v12h-12v0v0zM250 113v12v125v125v125v14h125v-14v-125v-125v-125v-12h-125v0v0zM363 0v125h12h125h125h125h14v-125h-14h-125h-125h-125h-12v0v0zM363 500v125h12h125h125h125h14v-125
h-14h-125h-125h-125h-12v0v0zM750 113v12v125v125v125v14h125v-14v-125v-125v-125v-12h-125v0v0z" />
    <glyph glyph-name="yen" unicode="&#xd4;" 
d="M375 750v125v14h125v-14v-125h-125v0v0zM488 875v125h12h125h14v-125h-14v-12h-125v12h-12v0v0zM625 750v125v14h125v-14v-125h-125v0v0zM250 113v12v125v125v125v14h125v-14v-125v-125v-125v-12h-125v0v0zM363 0v125h12h125h125h125h14v-125h-14h-125h-125h-125h-12v0v0
zM363 500v125h12h125h125h125h14v-125h-14h-125h-125h-125h-12v0v0zM750 113v12v125v125v125v14h125v-14v-125v-125v-125v-12h-125v0v0z" />
    <glyph glyph-name="mu" unicode="&#xd5;" 
d="M375 750v125v14h125v-14v-125h-125v0v0zM500 863v12v125h125v-125v-12h-125v0v0zM625 750v125v14h125v-14v-125h-125v0v0zM750 863v12v125h125v-125v-12h-125v0v0zM250 113v12v125v125v125v14h125v-14v-125v-125v-125v-12h-125v0v0zM363 0v125h12h125h125h125h14v-125
h-14h-125h-125h-125h-12v0v0zM363 500v125h12h125h125h125h14v-125h-14h-125h-125h-125h-12v0v0zM750 113v12v125v125v125v14h125v-14v-125v-125v-125v-12h-125v0v0z" />
    <glyph glyph-name="partialdiff" unicode="&#xd6;" 
d="M375 750v125h125v-125h-125v0v0zM625 750v125h125v-125h-125v0v0zM250 113v12v125v125v125v14h125v-14v-125v-125v-125v-12h-125v0v0zM363 0v125h12h125h125h125h14v-125h-14h-125h-125h-125h-12v0v0zM363 500v125h12h125h125h125h14v-125h-14h-125h-125h-125h-12v0v0z
M750 113v12v125v125v125v14h125v-14v-125v-125v-125v-12h-125v0v0z" />
    <glyph glyph-name="summation" unicode="&#xd7;" horiz-adv-x="625" 
d="M250 375v125h125v-125h-125v0v0zM250 125v125h125v-125h-125v0v0zM375 250v125h125v-125h-125v0v0zM500 375v125h125v-125h-125v0v0zM500 125v125h125v-125h-125v0v0z" />
    <glyph glyph-name="product" unicode="&#xd8;" horiz-adv-x="1125" 
d="M250 -125v125h125h14v-125h-14h-125v0v0zM363 0v125h12v125v125v125v14h125v-14v-125v-125h125h14v-125h-14h125h125h14v-125h-14h-125h-125h-125h-125h-12v0v0zM488 500v125h12h125h125h125h125h14v-125h-14v-125v-125v-125v-12h-125v12v125v125h-125h-12v125h12h-125
h-125h-12v0v0zM613 250v125h12h125h14v-125h-14h-125h-12v0v0zM988 625v125h12h125v-125h-125h-12v0v0z" />
    <glyph glyph-name="pi" unicode="&#xd9;" 
d="M375 863v12v125h125h14v-125h-14v-12h-125v0v0zM488 750v125h12v14h125v-14v-125h-125h-12v0v0zM250 113v12v125v125v125v125h125v-125v-125v-125v-125v-12h-125v0v0zM363 0v125h12h125v14h125v-14h14v-125h-14h-125h-125h-12v0v0zM613 125v125h12h125v125v125v125h125
v-125v-125v-125v-125v-125h-125h-12v125h12v-12h-125v12h-12v0v0z" />
    <glyph glyph-name="integral" unicode="&#xda;" 
d="M250 113v12v125v125v125v125h125v-125v-125v-125v-125v-12h-125v0v0zM363 0v125h12h125v14h125v-14h14v-125h-14h-125h-125h-12v0v0zM613 125v125h12h125v125v125v125h125v-125v-125v-125v-125v-125h-125v125v-12h-125v12h-12v0v0zM500 750v125v14h125v-14h14v-125h-14
h-125v0v0zM613 875v125h12h125v-125v-12h-125v12h-12v0v0z" />
    <glyph glyph-name="ordfeminine" unicode="&#xdb;" 
d="M375 750v125v14h125v-14h14v-125h-14h-125v0v0zM488 875v125h12h125h14v-125h-14h-125h-12v0v0zM613 750v125h12v14h125v-14v-125h-125h-12v0v0zM250 113v12v125v125v125v125h125v-125v-125v-125v-125v-12h-125v0v0zM363 0v125h12h125v14h125v-14h14v-125h-14h-125h-125
h-12v0v0zM613 125v125h12h125v125v125v125h125v-125v-125v-125v-125v-125h-125h-12v125h12v-12h-125v12h-12v0v0z" />
    <glyph glyph-name="ordmasculine" unicode="&#xdc;" 
d="M375 750v125h125v-125h-125v0v0zM625 750v125h125v-125h-125v0v0zM250 113v12v125v125v125v125h125v-125v-125v-125v-125v-12h-125v0v0zM363 0v125h12h125v14h125v-14h14v-125h-14h-125h-125h-12v0v0zM613 125v125v14h12h125v-14h-12v125h12v125v125h125v-125v-125v-125
v-125v-125h-125h-12v125h12v-12h-125v12h-12v0v0z" />
    <glyph glyph-name="Omega" unicode="&#xdd;" horiz-adv-x="750" 
d="M250 0v125h125h125h14v-125h-14h-125h-125v0v0zM363 363v12v125h12h125h14v-125h-14v-12h-125h-12v0v0zM250 488v12v125h125h14v-125h-14v-12h-125v0v0zM488 250v125h12h125h14v-125h-14v-125v-12h-125v12v125h-12v0v0zM613 375v125v14h12h125v-14h14v-125v-12h-14h-125
v12h-12v0v0zM738 500v125h12h125v-125v-12h-125v12h-12v0v0zM625 750v125v14h125v-14h14v-125h-14h-125v0v0zM738 875v125h12h125v-125v-12h-125v12h-12v0v0z" />
    <glyph glyph-name="ae" unicode="&#xde;" horiz-adv-x="750" 
d="M250 0v125v125v125v125v125v125h125v-125h125h125h14v-125h-14h-125h-125v-125v-125h125h125h14v-125h-14h-125h-125v-125h-125v0v0zM625 238v12v125v125v14h125v-14v-125v-125v-12h-125v0v0z" />
    <glyph glyph-name="oslash" unicode="&#xdf;" horiz-adv-x="750" 
d="M250 -125v125v125v125v125v125v125h125h125h125h14v-125h-14h-125h-125v-125v-125v-125v-125v-125h-125v0v0zM500 0v125h125h14v-125h-14h-125v0v0zM500 250v125h125h14v-125h-14h-125v0v0zM625 113v12v125v14h125v-14v-125v-12h-125v0v0zM625 363v12v125v14h125v-14
v-125v-12h-125v0v0z" />
    <glyph glyph-name="questiondown" unicode="&#xe0;" 
d="M488 750v125h12h125v-125h-125h-12v0v0zM375 875v125h125h14v-125h-14h-125v0v0zM250 113v12v125v14h125v-14v-125v-12h-125v0v0zM363 0v125h12h125h125h125v125h-125h-125h-125h-12v125h12h125h125h125v125v14h125v-14v-125v-125v-125v-125h-125h-125h-125h-125h-12v0v0
zM375 500v125h125h125h125h14v-125h-14h-125h-125h-125v0v0z" />
    <glyph glyph-name="exclamdown" unicode="&#xe1;" 
d="M500 750v125h125h14v-125h-14h-125v0v0zM613 875v125h12h125v-125h-125h-12v0v0zM250 113v12v125v14h125v-14v-125v-12h-125v0v0zM363 0v125h12h125h125h125v125h-125h-125h-125h-12v125h12h125h125h125v125v14h125v-14v-125v-125v-125v-125h-125h-125h-125h-125h-12v0v0
zM375 500v125h125h125h125h14v-125h-14h-125h-125h-125v0v0z" />
    <glyph glyph-name="logicalnot" unicode="&#xe2;" 
d="M375 750v125h125h14v-125h-14h-125v0v0zM488 875v125h12h125h14v-125h-14h-125h-12v0v0zM613 750v125h12h125v-125h-125h-12v0v0zM250 113v12v125v14h125v-14v-125v-12h-125v0v0zM363 0v125h12h125h125h125v125h-125h-125h-125h-12v125h12h125h125h125v125v14h125v-14
v-125v-125v-125v-125h-125h-125h-125h-125h-12v0v0zM375 500v125h125h125h125h14v-125h-14h-125h-125h-125v0v0z" />
    <glyph glyph-name="radical" unicode="&#xe3;" 
d="M375 750v125v14h125v-14v-125h-125v0v0zM500 863v12v125h125v-125v-12h-125v0v0zM625 750v125v14h125v-14v-125h-125v0v0zM750 863v12v125h125v-125v-12h-125v0v0zM250 113v12v125v14h125v-14v-125v-12h-125v0v0zM363 0v125h12h125h125h125v125h-125h-125h-125h-12v125
h12h125h125h125v125v14h125v-14v-125v-125v-125v-125h-125h-125h-125h-125h-12v0v0zM375 500v125h125h125h125h14v-125h-14h-125h-125h-125v0v0z" />
    <glyph glyph-name="florin" unicode="&#xe4;" 
d="M375 750v125h125v-125h-125v0v0zM625 750v125h125v-125h-125v0v0zM250 113v12v125v14h125v-14v-125v-12h-125v0v0zM363 0v125h12h125h125h125v125h-125h-125h-125h-12v125h12h125h125h125v125v14h125v-14v-125v-125v-125v-125h-125h-125h-125h-125h-12v0v0zM375 500v125
h125h125h125h14v-125h-14h-125h-125h-125v0v0z" />
    <glyph glyph-name="approxequal" unicode="&#xe5;" 
d="M250 113v12v125v14h125v-14v-125v-12h-125v0v0zM363 0v125h12h125h125h125v125h-125h-125h-125h-12v125h12h125h125h125v125v14h125v-14v-125v-125v-125v-125h-125h-125h-125h-125h-12v0v0zM375 500v125h125h-12v125h12h125h14v-125h-14h125h14v-125h-14h-125h-125h-125
v0v0zM375 750v125h125v-125h-125v0v0zM488 875v125h12h125h14v-125h-14h-125h-12v0v0zM625 750v125h125v-125h-125v0v0z" />
    <glyph glyph-name="Delta" unicode="&#xe6;" horiz-adv-x="1125" 
d="M250 113v12v125v14h125v-14v-125v-12h-125v0v0zM363 0v125h12h125h125v125h-125h-125h-12v125h12h125h125v125v14h125v-14v-125h125h125h14v-125h-14h-125h-125v-125h125h125v-125h-125h-125h-125h-125h-125h-12v0v0zM375 500v125h125h125h14v-125h-14h-125h-125v0v0z
M738 500v125h12h125h125h14v-125h-14h-125h-125h-12v0v0zM1000 363v12v125v14h125v-14v-125v-12h-125v0v0z" />
    <glyph glyph-name="guillemotleft" unicode="&#xe7;" horiz-adv-x="750" 
d="M250 113v12v125v125v125v14h125v-14v-125v-125v-125v-12h-125v0v0zM363 0v125h12h125h125h125v-125h-125h14v-125h-14h-125v125h-125h-12v0v0zM363 500v125h12h125h125h125v-125h-125h-125h-125h-12v0v0zM500 -375v125h125h14v-125h-14h-125v0v0zM625 -262v12v125v14h125
h14v-14v-125v-12h-14h-125v0v0z" />
    <glyph glyph-name="guillemotright" unicode="&#xe8;" 
d="M488 750v125h12h125v-125h-125h-12v0v0zM375 875v125h125h14v-125h-14h-125v0v0zM250 113v12v125v125v125v14h125v-14v-125h125h125h125v125v14h125v-14v-125v-125h-125h-125h-125h-125v-125v-12h-125v0v0zM363 0v125h12h125h125h125v-125h-125h-125h-125h-12v0v0z
M363 500v125h12h125h125h125h14v-125h-14h-125h-125h-125h-12v0v0z" />
    <glyph glyph-name="ellipsis" unicode="&#xe9;" 
d="M500 750v125h125h14v-125h-14h-125v0v0zM613 875v125h12h125v-125h-125h-12v0v0zM250 113v12v125v125v125v14h125v-14v-125h125h125h125v125v14h125v-14v-125v-125h-125h-125h-125h-125v-125v-12h-125v0v0zM363 0v125h12h125h125h125v-125h-125h-125h-125h-12v0v0z
M363 500v125h12h125h125h125h14v-125h-14h-125h-125h-125h-12v0v0z" />
    <glyph glyph-name="nonbreakingspace" unicode="&#xea;" 
d="M375 750v125h125h14v-125h-14h-125v0v0zM488 875v125h12h125h14v-125h-14h-125h-12v0v0zM613 750v125h12h125v-125h-125h-12v0v0zM250 113v12v125v125v125v14h125v-14v-125h125h125h125v125v14h125v-14v-125v-125h-125h-125h-125h-125v-125v-12h-125v0v0zM363 0v125h12
h125h125h125v-125h-125h-125h-125h-12v0v0zM363 500v125h12h125h125h125h14v-125h-14h-125h-125h-125h-12v0v0z" />
    <glyph glyph-name="Agrave" unicode="&#xeb;" 
d="M375 750v125h125h14v-125h-14h-125v0v0zM488 875v125h12h125h14v-125h-14h-125h-12v0v0zM625 750v125h125h14v-125h-14h-125v0v0zM738 875v125h12h125v-125h-125h-12v0v0zM250 113v12v125v125v125v14h125v-14v-125h125h125h125v125v14h125v-14v-125v-125h-125h-125h-125
h-125v-125v-12h-125v0v0zM363 0v125h12h125h125h125v-125h-125h-125h-125h-12v0v0zM363 500v125h12h125h125h125h14v-125h-14h-125h-125h-125h-12v0v0z" />
    <glyph glyph-name="Atilde" unicode="&#xec;" horiz-adv-x="375" 
d="M250 613v12v125h125h14v-125h-14v-12h-125v0v0zM363 500v125h12v14h125h14v-14h-14v-125h-125h-12v0v0zM375 0v125v125v125h125v-125v-125v-125h-125v0v0z" />
    <glyph glyph-name="Otilde" unicode="&#xed;" horiz-adv-x="375" 
d="M250 500v125v14h125v-14h14v-125h-14h-125v0v0zM363 625v125h12h125v-125v-12h-125v12h-12v0v0zM250 0v125v125v125h125v-125v-125v-125h-125v0v0z" />
    <glyph glyph-name="OE" unicode="&#xee;" horiz-adv-x="375" 
d="M250 500v125v14h125v-14v-125h-125v0v0zM363 625v125h12h125h14v-125h-14h-125h-12v0v0zM500 500v125v14h125v-14v-125h-125v0v0zM375 0v125v125v125h125v-125v-125v-125h-125v0v0z" />
    <glyph glyph-name="oe" unicode="&#xef;" horiz-adv-x="375" 
d="M250 500v125h125v-125h-125v0v0zM375 0v125v125v125h125v-125v-125v-125h-125v0v0zM500 500v125h125v-125h-125v0v0z" />
    <glyph glyph-name="endash" unicode="&#xf0;" horiz-adv-x="750" 
d="M250 125v125v125h125v-125v-125h-125v0v0zM375 0v125h125h125v125v125h-125h-125v125h125h125h-12v125h12v14h125v-14v-125v-125v-125v-125v-125h-125h-125h-125v0v0zM500 613v12v125h125h14v-125h-14v-12h-125v0v0z" />
    <glyph glyph-name="emdash" unicode="&#xf1;" 
d="M250 0v125v125v125v125v125h125v-125v14h125v-14v-125h-125v-125v-125v-125h-125v0v0zM488 500v125h12h125h125h14v-125h-14h-125h-125h-12v0v0zM750 0v125v125v125v125v14h125v-14v-125v-125v-125v-125h-125v0v0zM375 750v125v14h125v-14v-125h-125v0v0zM500 863v12v125
h125v-125v-12h-125v0v0zM625 750v125v14h125v-14v-125h-125v0v0zM750 863v12v125h125v-125v-12h-125v0v0z" />
    <glyph glyph-name="quotedblleft" unicode="&#xf2;" 
d="M375 863v12v125h125h14v-125h-14v-12h-125v0v0zM488 750v125h12v14h125v-14v-125h-125h-12v0v0zM250 113v12v125v125v125v14h125v-14v-125v-125v-125v-12h-125v0v0zM363 0v125h12h125h125h125h14v-125h-14h-125h-125h-125h-12v0v0zM363 500v125h12h125h125h125h14v-125
h-14h-125h-125h-125h-12v0v0zM750 113v12v125v125v125v14h125v-14v-125v-125v-125v-12h-125v0v0z" />
    <glyph glyph-name="quotedblright" unicode="&#xf3;" 
d="M500 750v125v14h125v-14h14v-125h-14h-125v0v0zM613 875v125h12h125v-125v-12h-125v12h-12v0v0zM250 113v12v125v125v125v14h125v-14v-125v-125v-125v-12h-125v0v0zM363 0v125h12h125h125h125h14v-125h-14h-125h-125h-125h-12v0v0zM363 500v125h12h125h125h125h14v-125
h-14h-125h-125h-125h-12v0v0zM750 113v12v125v125v125v14h125v-14v-125v-125v-125v-12h-125v0v0z" />
    <glyph glyph-name="quoteleft" unicode="&#xf4;" 
d="M375 750v125v14h125v-14v-125h-125v0v0zM488 875v125h12h125h14v-125h-14h-125h-12v0v0zM625 750v125v14h125v-14v-125h-125v0v0zM250 113v12v125v125v125v14h125v-14v-125v-125v-125v-12h-125v0v0zM363 0v125h12h125h125h125h14v-125h-14h-125h-125h-125h-12v0v0z
M363 500v125h12h125h125h125h14v-125h-14h-125h-125h-125h-12v0v0zM750 113v12v125v125v125v14h125v-14v-125v-125v-125v-12h-125v0v0z" />
    <glyph glyph-name="quoteright" unicode="&#xf5;" 
d="M375 750v125v14h125v-14v-125h-125v0v0zM500 863v12v125h125v-125v-12h-125v0v0zM625 750v125v14h125v-14v-125h-125v0v0zM750 863v12v125h125v-125v-12h-125v0v0zM250 113v12v125v125v125v14h125v-14v-125v-125v-125v-12h-125v0v0zM363 0v125h12h125h125h125h14v-125
h-14h-125h-125h-125h-12v0v0zM363 500v125h12h125h125h125h14v-125h-14h-125h-125h-125h-12v0v0zM750 113v12v125v125v125v14h125v-14v-125v-125v-125v-12h-125v0v0z" />
    <glyph glyph-name="divide" unicode="&#xf6;" 
d="M375 750v125h125v-125h-125v0v0zM625 750v125h125v-125h-125v0v0zM250 113v12v125v125v125v14h125v-14v-125v-125v-125v-12h-125v0v0zM363 0v125h12h125h125h125h14v-125h-14h-125h-125h-125h-12v0v0zM363 500v125h12h125h125h125h14v-125h-14h-125h-125h-125h-12v0v0z
M750 113v12v125v125v125v14h125v-14v-125v-125v-125v-12h-125v0v0z" />
    <glyph glyph-name="lozenge" unicode="&#xf7;" 
d="M250 250v125h125h125h125h125h125v-125h-125h-125h-125h-125h-125v0v0zM500 500v125h125v-125h-125v0v0zM500 0v125h125v-125h-125v0v0z" />
    <glyph glyph-name="ydieresis" unicode="&#xf8;" horiz-adv-x="1125" 
d="M250 -125v125h125h14v-125h-14h-125v0v0zM363 0v125h12v125v125v125v14h125v-14v-125v-125h125h14v-125h-14h125h125h14v-125h-14h-125h-125h-125h-125h-12v0v0zM488 500v125h12h125h125h125h125v-125v-125v-125v-125v-12h-125v12v125v125h-125h-12v125h12h-125h-125h-12
v0v0zM613 250v125h12h125h14v-125h-14h-125h-12v0v0zM988 625v125h12h125v-125h-125h-12v0v0z" />
    <glyph glyph-name="Ydieresis" unicode="&#xf9;" 
d="M500 863v12v125h125h14v-125h-14v-12h-125v0v0zM613 750v125h12v14h125v-14v-125h-125h-12v0v0zM363 375v125h12v125h125v-125v-125v-125v-125v-12h-125v12v125v125h-12v0v0zM488 0v125h12h125v14h125v-14h14v-125h-14h-125h-125h-12v0v0zM738 125v125h12h125v125v125
v125h125v-125v-125v-125v-125v-125h-125h-12v125h12v-12h-125v12h-12v0v0z" />
    <glyph glyph-name="fraction" unicode="&#xfa;" 
d="M500 750v125v14h125v-14h14v-125h-14h-125v0v0zM613 875v125h12h125v-125v-12h-125v12h-12v0v0zM250 113v12v125v125v125v125h125v-125v-125v-125v-125v-12h-125v0v0zM363 0v125h12h125v14h125v-14h14v-125h-14h-125h-125h-12v0v0zM613 125v125h12h125v125v125v125h125
v-125v-125v-125v-125v-125h-125h-12v125h12v-12h-125v12h-12v0v0z" />
    <glyph glyph-name="currency" unicode="&#xfb;" 
d="M375 750v125h125v-125h-125v0v0zM488 875v125h12h125h14v-125h-14v-12h-125v12h-12v0v0zM625 750v125h125v-125h-125v0v0zM250 113v12v125v125v125v125h125v-125v-125v-125v-125v-12h-125v0v0zM363 0v125h12h125v14h125v-14h14v-125h-14h-125h-125h-12v0v0zM613 125v125
h12h125v125v125v125h125v-125v-125v-125v-125v-125h-125h-12v125h12v-12h-125v12h-12v0v0z" />
    <glyph glyph-name="guilsinglleft" unicode="&#xfc;" 
d="M375 750v125h125v-125h-125v0v0zM625 750v125h125v-125h-125v0v0zM250 113v12v125v125v125v125h125v-125v-125v-125v-125v-12h-125v0v0zM363 0v125h12h125v14h125v-14h14v-125h-14h-125h-125h-12v0v0zM613 125v125h12h125v125v125v125h125v-125v-125v-125v-125v-125h-125
h-12v125h12v-12h-125v12h-12v0v0z" />
    <glyph glyph-name="guilsinglright" unicode="&#xfd;" horiz-adv-x="750" 
d="M250 750v125h125v-125h-125v0v0zM375 875v125h125v-125h-125v0v0z" />
    <glyph glyph-name="fi" unicode="&#xfe;" horiz-adv-x="750" 
d="M250 0v125v125v125v125v125v125h125v-125h125h125h14v-125h-14h-125h-125v-125v-125h125h125h14v-125h-14h-125h-125v-125h-125v0v0zM625 238v12v125v125v14h125v-14v-125v-125v-12h-125v0v0z" />
    <glyph glyph-name="fl" unicode="&#xff;" horiz-adv-x="750" 
d="M375 750v125h125v-125h-125v0v0zM625 750v125h125v-125h-125v0v0zM250 0v125h125h125h14v-125h-14h-125h-125v0v0zM363 363v12v125h12h125h14v-125h-14v-12h-125h-12v0v0zM250 488v12v125h125h14v-125h-14v-12h-125v0v0zM488 250v125h12h125h14v-125h-14v-125v-12h-125
v12v125h-12v0v0zM625 363v12v125h125h14v-125v-12h-14h-125v0v0zM738 500v125h12h125v-125v-12h-125v12h-12v0v0z" />
  </font>
</defs>
</svg>
